<svg xmlns="http://www.w3.org/2000/svg" version="1.1" xmlns:xlink="http://www.w3.org/1999/xlink" viewBox="0 0 200 200" width="200" height="200"><rect width="200" height="200" fill="url('#gradient')"></rect><defs><linearGradient id="gradient" gradientTransform="rotate(273 0.5 0.5)"><stop offset="0%" stop-color="#262626"></stop><stop offset="100%" stop-color="#949494"></stop></linearGradient></defs><g><g fill="#ffffff" transform="matrix(5.949224035017907,0,0,5.949224035017907,23.012707421142082,142.30324136227)" stroke="#ffffff" stroke-width="0"><path d="M9.17-4.81L12.58-4.81Q12.51-3.33 11.78-2.19Q11.04-1.05 9.72-0.43Q8.40 0.20 6.70 0.20L6.70 0.20Q3.90 0.20 2.29-1.63Q0.67-3.46 0.67-6.79L0.67-6.79L0.67-7.49Q0.67-9.58 1.40-11.15Q2.13-12.71 3.50-13.57Q4.86-14.42 6.66-14.42L6.66-14.42Q9.25-14.42 10.82-13.06Q12.39-11.70 12.61-9.31L12.61-9.31L9.19-9.31Q9.15-10.61 8.54-11.17Q7.92-11.74 6.66-11.74L6.66-11.74Q5.38-11.74 4.79-10.78Q4.19-9.82 4.16-7.72L4.16-7.72L4.16-6.72Q4.16-4.44 4.73-3.47Q5.30-2.49 6.70-2.49L6.70-2.49Q7.88-2.49 8.51-3.05Q9.13-3.60 9.17-4.81L9.17-4.81ZM19.97 0L14.20 0L14.20-14.22L19.31-14.22Q22.05-14.22 23.48-13.21Q24.91-12.21 24.91-10.29L24.91-10.29Q24.91-9.19 24.40-8.41Q23.90-7.63 22.91-7.26L22.91-7.26Q24.02-6.96 24.62-6.16Q25.21-5.36 25.21-4.21L25.21-4.21Q25.21-2.12 23.89-1.07Q22.57-0.02 19.97 0L19.97 0ZM20.03-6.04L17.63-6.04L17.63-2.64L19.87-2.64Q20.80-2.64 21.30-3.06Q21.80-3.49 21.80-4.26L21.80-4.26Q21.80-6.04 20.03-6.04L20.03-6.04ZM17.63-11.57L17.63-8.29L19.41-8.29Q20.54-8.30 21.02-8.70Q21.49-9.10 21.49-9.88L21.49-9.88Q21.49-10.78 20.98-11.18Q20.46-11.57 19.31-11.57L19.31-11.57L17.63-11.57Z"></path></g></g><style>@media (prefers-color-scheme: light) { :root { filter: none; } }
@media (prefers-color-scheme: dark) { :root { filter: none; } }
</style></svg>